# xmcd CD database file
#
# Track frame offsets:
#	150
#	17752
#	27921
#	49710
#	60135
#	72906
#	87814
#	104286
#	119131
#	131025
#	147907
#	158461
#	173885
#	183549
#
# Disc length: 2646 seconds
#
# Revision: 0
# Processed by: cddbd v1.5.2PL0 Copyright (c) Steve Scherf et al.
# Submitted via: CDex 1.70beta2
#
DISCID=b90a540e
DTITLE=Bigband WÖrgl - 186 - The best of
DYEAR=1900
DGENRE=Jazz
TTITLE0=Smooth Operator
TTITLE1=Bill Beiley
TTITLE2=Pick up the Peaces
TTITLE3=De Quilla
TTITLE4=All my Life
TTITLE5=In the Mood
TTITLE6=Mission: Impossible-Theme
TTITLE7=The pink Panther
TTITLE8=Wild Cat Blues
TTITLE9=Mercy, mercy, mercy
TTITLE10=Tico, Tico
TTITLE11=Jemes Bont-Theme
TTITLE12=Mambo Jambo
TTITLE13=The final Countdown
EXTD=
EXTT0=
EXTT1=
EXTT2=
EXTT3=
EXTT4=
EXTT5=
EXTT6=
EXTT7=
EXTT8=
EXTT9=
EXTT10=
EXTT11=
EXTT12=
EXTT13=
PLAYORDER=
